<svg width="28" height="29" viewBox="0 0 28 29" fill="none" xmlns="http://www.w3.org/2000/svg">
<g clip-path="url(#clip0_1_1298)">
<path d="M14 2.85164C17.1698 2.85164 17.5653 2.86331 18.809 2.92164C20.0515 2.97998 20.8973 3.17481 21.6417 3.46414C22.4117 3.76048 23.0603 4.16181 23.709 4.80931C24.3022 5.39252 24.7613 6.098 25.0542 6.87664C25.3423 7.61981 25.5383 8.46681 25.5967 9.70931C25.6515 10.953 25.6667 11.3485 25.6667 14.5183C25.6667 17.6881 25.655 18.0836 25.5967 19.3273C25.5383 20.5698 25.3423 21.4156 25.0542 22.16C24.7621 22.939 24.303 23.6447 23.709 24.2273C23.1256 24.8204 22.4202 25.2794 21.6417 25.5725C20.8985 25.8606 20.0515 26.0566 18.809 26.115C17.5653 26.1698 17.1698 26.185 14 26.185C10.8302 26.185 10.4347 26.1733 9.191 26.115C7.94849 26.0566 7.10266 25.8606 6.35833 25.5725C5.57938 25.2802 4.87378 24.8211 4.291 24.2273C3.69764 23.6442 3.23858 22.9387 2.94583 22.16C2.6565 21.4168 2.46166 20.5698 2.40333 19.3273C2.34849 18.0836 2.33333 17.6881 2.33333 14.5183C2.33333 11.3485 2.34499 10.953 2.40333 9.70931C2.46166 8.46564 2.6565 7.62098 2.94583 6.87664C3.23777 6.09752 3.69693 5.39185 4.291 4.80931C4.87394 4.21575 5.57949 3.75666 6.35833 3.46414C7.10266 3.17481 7.94733 2.97998 9.191 2.92164C10.4347 2.86681 10.8302 2.85164 14 2.85164ZM14 8.68498C12.4529 8.68498 10.9692 9.29956 9.87521 10.3935C8.78124 11.4875 8.16666 12.9712 8.16666 14.5183C8.16666 16.0654 8.78124 17.5491 9.87521 18.6431C10.9692 19.7371 12.4529 20.3516 14 20.3516C15.5471 20.3516 17.0308 19.7371 18.1248 18.6431C19.2187 17.5491 19.8333 16.0654 19.8333 14.5183C19.8333 12.9712 19.2187 11.4875 18.1248 10.3935C17.0308 9.29956 15.5471 8.68498 14 8.68498ZM21.5833 8.39331C21.5833 8.00654 21.4297 7.6356 21.1562 7.36211C20.8827 7.08862 20.5118 6.93498 20.125 6.93498C19.7382 6.93498 19.3673 7.08862 19.0938 7.36211C18.8203 7.6356 18.6667 8.00654 18.6667 8.39331C18.6667 8.78008 18.8203 9.15102 19.0938 9.42451C19.3673 9.698 19.7382 9.85164 20.125 9.85164C20.5118 9.85164 20.8827 9.698 21.1562 9.42451C21.4297 9.15102 21.5833 8.78008 21.5833 8.39331ZM14 11.0183C14.9283 11.0183 15.8185 11.3871 16.4749 12.0434C17.1312 12.6998 17.5 13.5901 17.5 14.5183C17.5 15.4466 17.1312 16.3368 16.4749 16.9932C15.8185 17.6496 14.9283 18.0183 14 18.0183C13.0717 18.0183 12.1815 17.6496 11.5251 16.9932C10.8687 16.3368 10.5 15.4466 10.5 14.5183C10.5 13.5901 10.8687 12.6998 11.5251 12.0434C12.1815 11.3871 13.0717 11.0183 14 11.0183Z" fill="#888888"/>
</g>
<defs>
<clipPath id="clip0_1_1298">
<rect width="28" height="28" fill="white" transform="translate(0 0.518311)"/>
</clipPath>
</defs>
</svg>
